:SAMPLES-PER-SECOND 30
:FULLY-SPECIFIED
:DEGREES
115
root  -2.66783 40.9587 0.302605 176.129 -77.6153 -176.403
RightUpLeg  2.84413 -0.649872 -0.463685
RightLeg  -1.5565 -8.39744 0.656349
RightFoot  -0.0660996 -0.330131 3.30222
RightToes  -3.13006e-008 1.75238e-005 3.56266e-009
Spine  -8.50814 -1.64745 -0.83607
Spine1  14.0666 -0.8643 -2.80303
HEad  -19.1857 -31.8714 7.47754
LeftShoulder1  2.22918 -4.51712 -21.4267
LeftArm  -3.10085 20.432 -53.6332
LeftForeArm  159.784 -70.5582 -151.196
LeftHand  -0.635005 -4.92371 7.44037
RightShoulder  1.66269 3.17766 18.4025
RightArm  -51.4133 15.2962 16.3815
RightForeArm  46.172 77.7333 61.3115
RightHand  -1.09049 8.30753 -9.57617
LeftUpLeg  6.09602 2.0426 3.24067
LeftLeg  -3.81574 24.0164 -1.55222
LeftFoot  -0.529879 0.482261 -5.06368
LeftToes  4.76866e-008 1.46233e-008 1.30548e-009
116
root  -2.67058 40.9496 0.346271 175.763 -76.3857 -176.384
RightUpLeg  2.84911 -0.468378 -0.378087
RightLeg  -1.09848 -7.27103 0.389828
RightFoot  -0.0740042 -0.336168 3.37925
RightToes  -3.13006e-008 1.75238e-005 3.56266e-009
Spine  -8.25507 -1.69029 0.4544
Spine1  14.2442 -0.494135 -4.65522
HEad  -20.8589 -37.0698 9.52374
LeftShoulder1  2.14458 -4.36328 -20.8633
LeftArm  -3.02989 19.6504 -54.5012
LeftForeArm  157.342 -70.8702 -150.371
LeftHand  -0.674445 -4.81062 7.96967
RightShoulder  1.75967 3.49431 18.687
RightArm  -48.3837 15.7738 14.9526
RightForeArm  41.8611 77.2414 57.6369
RightHand  -0.921054 8.44745 -8.08011
LeftUpLeg  6.55118 2.14108 3.20508
LeftLeg  -3.61582 25.1555 -1.51206
LeftFoot  -0.787499 0.479514 -5.14061
LeftToes  4.76866e-008 1.46233e-008 1.30548e-009
117
root  -2.62974 40.9326 0.369438 175.807 -75.4981 -176.623
RightUpLeg  2.59256 -0.28615 -0.319793
RightLeg  -0.528194 -6.53728 0.152996
RightFoot  -0.220134 -0.335515 3.35732
RightToes  -3.13006e-008 1.75238e-005 3.56266e-009
Spine  -7.21705 -1.88062 0.469931
Spine1  13.2806 -0.63057 -5.0478
HEad  -21.2505 -41.993 8.92713
LeftShoulder1  2.31494 -4.94306 -21.0237
LeftArm  -2.53278 18.6765 -55.271
LeftForeArm  154.655 -71.4723 -148.977
LeftHand  -0.660044 -3.97956 8.44361
RightShoulder  1.7747 3.63016 18.393
RightArm  -46.2807 15.6733 13.1326
RightForeArm  39.3457 76.8469 54.857
RightHand  -0.880831 8.39496 -7.75993
LeftUpLeg  6.57159 2.30689 3.2139
LeftLeg  -3.05198 25.8582 -1.4062
LeftFoot  -1.10064 0.486419 -5.35287
LeftToes  4.76866e-008 1.46233e-008 1.30548e-009
118
root  -2.57032 40.9242 0.389742 176.022 -75.1934 -176.833
RightUpLeg  2.08992 -0.112522 -0.286934
RightLeg  0.189618 -6.3421 -0.0940396
RightFoot  -0.362501 -0.343898 3.47801
RightToes  -3.13006e-008 1.75238e-005 3.56266e-009
Spine  -6.30165 -2.58577 0.655291
Spine1  12.5107 -1.09622 -6.15488
HEad  -22.694 -49.0186 12.2657
LeftShoulder1  2.37341 -5.2316 -20.772
LeftArm  -0.592922 15.5263 -56.0022
LeftForeArm  154.804 -72.8108 -146.553
LeftHand  -0.704756 -3.73766 9.21655
RightShoulder  1.77295 3.67652 18.1916
RightArm  -46.8549 15.8107 11.8931
RightForeArm  38.314 76.6725 53.7523
RightHand  -0.758776 8.28558 -6.79354
LeftUpLeg  6.21229 2.44049 3.23794
LeftLeg  -2.38255 26.0321 -1.28069
LeftFoot  -1.35899 0.476458 -5.36115
LeftToes  4.76866e-008 1.46233e-008 1.30548e-009
119
root  -2.51127 40.9195 0.409503 176.434 -75.4561 -177.143
RightUpLeg  1.6758 -0.0660331 -0.353445
RightLeg  0.633161 -6.60907 -0.244818
RightFoot  -0.41269 -0.348148 3.53452
RightToes  -3.13006e-008 1.75238e-005 3.56266e-009
Spine  -5.58561 -3.7529 0.68189
Spine1  11.8081 -1.99894 -7.36963
HEad  -24.6129 -55.8564 15.784
LeftShoulder1  2.44537 -5.57759 -20.5125
LeftArm  1.88491 11.5202 -56.8094
LeftForeArm  154.077 -74.0934 -143.681
LeftHand  -0.707576 -4.02339 8.99054
RightShoulder  1.8215 3.7827 18.5235
RightArm  -48.8176 15.4353 10.4781
RightForeArm  38.196 76.7852 54.8501
RightHand  -0.953467 8.94388 -8.08097
LeftUpLeg  5.71971 2.48233 3.20847
LeftLeg  -1.84906 25.7475 -1.19457
LeftFoot  -1.55597 0.464356 -5.31448
LeftToes  4.76866e-008 1.46233e-008 1.30548e-009
